<svg version="1.0" xmlns="http://www.w3.org/2000/svg" width="666.667" height="666.667" viewBox="0 0 500 500"><path d="M0 250v250h500V0H0v250zM362.8 72.1c18.5 9.2 21.9 33.9 6.6 47.8-8.6 7.9-18.4 9.9-29.2 6.2l-5.2-1.8-39.8 40.6-39.8 40.6 1.7 5 1.7 5 61.4.5 61.4.5 4.2 2.8c7.4 4.8 10.3 14.8 6.7 23.2-.8 2.2-14 16.3-34.5 36.8-18.1 18.4-33 33.6-33 33.8 0 .2 17.5.3 38.8.1l38.8-.2 1.9-3.6c8.4-15.6 31.5-18.5 44.8-5.6 6 5.7 8 10.5 8.5 19.8.4 7.2.1 8.9-2 13.5-3.4 7.5-7 11.4-13.2 14.4-11.9 5.8-23.7 4.1-33.2-4.8-4.2-3.9-6-6.5-7.4-10.7l-1.9-5.5-45.8-.3-45.9-.2-28.1 28.2-28.2 28.3 2.1 6c4.6 13.7-1.6 29.1-14.5 35.7-6 3-17.2 3.6-23.4 1.3-9.4-3.6-17-13.4-18.8-24.2-1.5-9.2 4.3-22.1 12.3-27.7 8-5.5 17-6.8 25.9-3.7l5.2 1.7 22.8-22.8c20.9-20.9 22.5-22.8 19.8-22.8-1.7 0-53.6-.1-115.5-.2-93.1-.3-112.9-.5-115-1.7-3.6-2-8-6.2-9.6-9.3-2-3.8-1.8-12.6.4-16.5.9-1.7 16.6-18.4 34.7-36.9 24.4-25 32.9-34.3 32.7-35.8-1.4-12.2-1.4-15.7.4-20.7 8.8-24.4 42.4-26 53.6-2.4 9.3 19.6-4.6 41.8-26.3 41.9-5.1 0-7.7-.6-11.8-2.6l-5.2-2.5-32.5 33C69.9 296.2 57 310 57.2 310.9c.3 1.4 12.7 1.6 122.8 1.9l122.5.2 38.3-38.2c28.1-28.1 38.2-38.8 38-40.3-.3-2-1.2-2-61-2.3l-60.6-.2-2 3.2c-5.7 9.2-14.8 14.2-25.7 14.2-8.7 0-15.3-3.1-21.3-9.9-13.1-14.9-7.7-38.6 10.7-46.8 5.7-2.5 16-2.7 21.5-.3 2.1.9 3.9 1.6 4.1 1.6.1 0 18.1-18.2 40-40.5l39.7-40.5-1.6-4.7c-1.9-5.5-2.1-14.6-.4-19.4 2.7-8 10.4-15.9 18.3-18.7 1.7-.6 6-1.1 9.6-1.1 5.4-.1 7.6.4 12.7 3z"/><path d="M343.2 86c-9.8 6-9.3 19.3 1.1 24.4 5 2.4 9.8 1.5 14.4-2.8 2.9-2.7 3.6-4.1 4-8.2 1.2-11.7-9.8-19.3-19.5-13.4zM131.8 206.7c-3.2 2-6.8 8.1-6.8 11.7 0 6.5 5.4 13.1 11 13.6 6.4.6 8.3-.1 12.1-3.9 3.4-3.4 3.9-4.4 3.9-8.5 0-8.8-5.3-14.6-13.2-14.6-2.3 0-5.5.8-7 1.7zM222.3 208c-8.3 5-8.3 18 .1 23.5 5.8 3.8 15.2 1.1 18.7-5.5 6.7-12.4-6.9-25.3-18.8-18zM423.4 312.4c-7.2 3.2-10.3 14.1-5.8 20.4 2.5 3.4 7.9 6.2 12 6.2 7.2 0 14-8.1 12.9-15.4-1.4-9.6-10.5-14.9-19.1-11.2zM219.4 389.9c-3.4 2.1-6.4 7.5-6.4 11.6 0 13.9 19.2 18.8 25.5 6.5 3.1-5.9 1.3-13.7-4.1-17.9-3.5-2.7-10.7-2.8-15-.2z"/></svg>